<svg width="49" height="41" fill="none" xmlns="http://www.w3.org/2000/svg"><path d="M45.56 0H30.589c-1.36 0-2.463 1.056-2.463 2.358v14.338c0 1.302 1.104 2.359 2.463 2.359h7.166c-.093 3.754-1.005 6.758-2.728 9.018-1.36 1.782-3.419 3.259-6.172 4.424-1.266.533-1.812 1.967-1.221 3.164l1.773 3.585c.571 1.15 1.985 1.656 3.206 1.15 3.26-1.348 6.014-3.055 8.26-5.13 2.739-2.533 4.615-5.392 5.63-8.58 1.014-3.188 1.521-7.537 1.521-13.055V2.358C48.023 1.057 46.92 0 45.561 0zM5.223 40.387c3.22-1.344 5.96-3.051 8.22-5.122 2.763-2.532 4.65-5.381 5.664-8.546 1.015-3.165 1.522-7.527 1.522-13.088V2.358C20.629 1.056 19.526 0 18.166 0H3.193C1.834 0 .731 1.056.731 2.358v14.338c0 1.302 1.103 2.359 2.462 2.359h7.167c-.094 3.754-1.005 6.758-2.729 9.018-1.36 1.782-3.418 3.259-6.171 4.424C.194 33.03-.353 34.464.238 35.66l1.768 3.576c.572 1.15 1.995 1.66 3.217 1.15z" fill="#EA2E2E"/></svg>